<svg id="visual" viewBox="0 0 900 600" width="900" height="600" xmlns="http://www.w3.org/2000/svg" xmlns:xlink="http://www.w3.org/1999/xlink" version="1.1"><g transform="translate(456.7129189530659 276.0825832453639)"><path d="M131.5 -203.7C172.6 -204 209.7 -173.2 240.5 -134.1C271.2 -95 295.6 -47.5 285.5 -5.8C275.4 35.8 230.8 71.7 205.5 120.3C180.3 169 174.4 230.4 143.4 237.5C112.3 244.6 56.2 197.3 0 197.3C-56.2 197.3 -112.3 244.6 -166.5 250.8C-220.6 257.1 -272.7 222.3 -291.8 173.6C-310.8 125 -296.9 62.5 -286.8 5.8C-276.7 -50.8 -270.4 -101.7 -242.7 -135.3C-214.9 -168.9 -165.7 -185.4 -121.7 -183.4C-77.7 -181.4 -38.8 -161 3.2 -166.5C45.2 -172 90.3 -203.3 131.5 -203.7" fill="#BB004B"></path></g></svg>