<svg id="visual" viewBox="0 0 900 600" width="900" height="600" xmlns="http://www.w3.org/2000/svg" xmlns:xlink="http://www.w3.org/1999/xlink" version="1.1"><g transform="translate(447.02526945595986 305.7396130050769)"><path d="M104.9 -181.5C146.5 -157.7 197.9 -150.8 222.8 -123.4C247.6 -96 245.8 -48 235 -6.3C224.2 35.5 204.3 71 184.2 106.7C164.1 142.3 143.8 178.1 113.1 208.9C82.3 239.6 41.2 265.3 5 256.7C-31.3 248.1 -62.5 205.3 -99.7 178.3C-137 151.3 -180.2 140.1 -205.6 113.1C-231 86 -238.5 43 -236.2 1.3C-233.9 -40.3 -221.7 -80.7 -205.7 -124C-189.7 -167.3 -169.9 -213.5 -134.9 -241.2C-100 -268.9 -50 -277.9 -9.2 -262.1C31.7 -246.2 63.3 -205.4 104.9 -181.5" fill="#BB004B"></path></g></svg>